# Blender v2.80 (sub 75) OBJ File: ''
# www.blender.org
mtllib Box.mtl
o Cube_Cube.001
v -1.115788 0.143276 1.340507
v -1.115788 2.374852 1.340507
v -1.115788 0.143276 -1.340507
v -1.115788 2.374852 -1.340507
v 1.340507 0.153504 1.105560
v 1.340507 2.364624 1.105560
v 1.340507 0.153504 -1.105560
v 1.340507 2.364624 -1.105560
v 1.115788 2.374852 -1.340507
v 1.115788 0.143276 -1.340507
v 1.115788 0.143276 1.340507
v 1.115788 2.374852 1.340507
v 0.990960 2.185746 -0.926682
v 0.990960 0.332382 -0.926682
v 0.990960 0.332382 0.926682
v 0.990960 2.185746 0.926682
v -1.166102 -0.081443 1.166102
v -1.166102 2.599571 1.166102
v -1.166102 2.599571 -1.166102
v -1.166102 -0.081443 -1.166102
v 1.166102 -0.081443 -1.166102
v 1.166102 2.599571 -1.166102
v 1.166102 2.599571 1.166102
v 1.166102 -0.081443 1.166102
v -0.933478 0.323809 0.985272
v -0.933478 2.194319 0.985272
v -0.933478 2.194319 -0.985272
v -0.933478 0.323809 -0.985272
v 0.937032 0.323809 -0.985272
v 0.937032 2.194319 -0.985272
v 0.937032 2.194319 0.985272
v 0.937032 0.323809 0.985272
v -1.340507 0.119046 -1.140018
v -1.340507 0.119046 1.140018
v -1.340507 2.399082 1.140018
v -1.340507 2.399082 -1.140018
v -1.040643 0.210836 -1.040643
v -1.040643 0.210836 1.040643
v -1.040643 2.307292 1.040643
v -1.040643 2.307292 -1.040643
v 1.040643 0.210836 -1.040643
v 1.040643 2.307292 -1.040643
v 1.040643 0.210836 1.040643
v 1.040643 2.307292 1.040643
v -1.166102 0.084462 -1.166102
v -1.166102 0.084462 1.166102
v -1.166102 2.433666 1.166102
v -1.166102 2.433666 -1.166102
v 1.166102 0.084462 -1.166102
v 1.166102 2.433666 -1.166102
v 1.166102 0.084462 1.166102
v 1.166102 2.433666 1.166102
v -0.950588 0.303499 -0.955565
v -0.950588 0.303499 0.955565
v -0.950588 2.214629 0.955565
v -0.950588 2.214629 -0.955565
v 0.652628 -0.081443 -1.340507
v 1.115836 0.143228 -1.340507
v 1.340507 0.606436 -1.340507
v 1.340507 0.153456 -1.105608
v 1.340507 -0.081443 -0.652628
v 1.166150 -0.081443 -1.166150
v 1.090155 0.000548 -1.340507
v 1.260923 0.002574 -1.260174
v 1.258515 0.168909 -1.340507
v 1.340507 0.173000 -1.255157
v 1.340507 0.003907 -1.086064
v 1.277572 -0.081443 -1.107379
v 1.107379 -0.081443 -1.277572
v 1.166150 2.599571 -1.166150
v 1.340507 2.599571 -0.652628
v 1.340507 2.364672 -1.105608
v 1.340507 1.911692 -1.340507
v 1.115836 2.374899 -1.340507
v 0.652628 2.599571 -1.340507
v 1.277572 2.599571 -1.107379
v 1.260922 2.515553 -1.260173
v 1.340507 2.514221 -1.086064
v 1.340507 2.345128 -1.255157
v 1.258515 2.349219 -1.340507
v 1.090155 2.517580 -1.340507
v 1.107379 2.599571 -1.277572
v 1.340507 -0.081443 0.652628
v 1.340507 0.153456 1.105608
v 1.340507 0.606436 1.340507
v 1.115836 0.143228 1.340507
v 0.652628 -0.081443 1.340507
v 1.166150 -0.081443 1.166150
v 1.340507 0.003907 1.086064
v 1.260923 0.002574 1.260174
v 1.340507 0.173000 1.255157
v 1.258515 0.168909 1.340507
v 1.090155 0.000548 1.340507
v 1.107379 -0.081443 1.277572
v 1.277572 -0.081443 1.107379
v 1.166150 2.599571 1.166150
v 0.652628 2.599571 1.340507
v 1.115836 2.374899 1.340507
v 1.340507 1.911692 1.340507
v 1.340507 2.364672 1.105608
v 1.340507 2.599571 0.652628
v 1.107379 2.599571 1.277572
v 1.260923 2.515553 1.260174
v 1.090155 2.517580 1.340507
v 1.258515 2.349219 1.340507
v 1.340507 2.345128 1.255157
v 1.340507 2.514221 1.086064
v 1.277572 2.599571 1.107379
v -1.340507 0.118999 -1.140065
v -1.340507 0.606436 -1.340507
v -1.115836 0.143228 -1.340507
v -0.652628 -0.081443 -1.340507
v -1.166150 -0.081443 -1.166150
v -1.340507 -0.081443 -0.652628
v -1.340507 0.159855 -1.267194
v -1.260923 0.000051 -1.262697
v -1.258515 0.168909 -1.340507
v -1.090155 0.000548 -1.340507
v -1.107379 -0.081443 -1.277572
v -1.277572 -0.081443 -1.107379
v -1.340507 -0.008130 -1.099209
v -1.340507 -0.081443 0.652628
v -1.166150 -0.081443 1.166150
v -0.652628 -0.081443 1.340507
v -1.115836 0.143228 1.340507
v -1.340507 0.606436 1.340507
v -1.340507 0.118999 1.140065
v -1.277572 -0.081443 1.107379
v -1.260922 0.000051 1.262697
v -1.107379 -0.081443 1.277572
v -1.090155 0.000548 1.340507
v -1.258515 0.168909 1.340507
v -1.340507 0.159855 1.267194
v -1.340507 -0.008130 1.099209
v -1.340507 1.911692 1.340507
v -1.115836 2.374899 1.340507
v -0.652628 2.599571 1.340507
v -1.166150 2.599571 1.166150
v -1.340507 2.599571 0.652628
v -1.340507 2.399129 1.140065
v -1.258515 2.349219 1.340507
v -1.260922 2.518076 1.262697
v -1.090155 2.517580 1.340507
v -1.107379 2.599571 1.277572
v -1.277572 2.599571 1.107379
v -1.340507 2.526258 1.099209
v -1.340507 2.358273 1.267194
v -1.340507 2.599571 -0.652628
v -1.166150 2.599571 -1.166150
v -0.652628 2.599571 -1.340507
v -1.115836 2.374899 -1.340507
v -1.340507 1.911692 -1.340507
v -1.340507 2.399129 -1.140065
v -1.277572 2.599571 -1.107379
v -1.260922 2.518076 -1.262697
v -1.107379 2.599571 -1.277572
v -1.090155 2.517580 -1.340507
v -1.258515 2.349219 -1.340507
v -1.340507 2.358273 -1.267194
v -1.340507 2.526258 -1.099209
vt 0.393695 0.018695
vt 0.606305 0.018695
vt 0.606305 0.018695
vt 0.393695 0.018695
vt 0.395955 0.770955
vt 0.604045 0.770955
vt 0.604045 0.770955
vt 0.395955 0.770955
vt 0.396908 0.728092
vt 0.396908 0.521908
vt 0.396908 0.521908
vt 0.396908 0.728092
vt 0.604045 0.979045
vt 0.604045 0.979045
vt 0.358737 0.516263
vt 0.358737 0.733737
vt 0.358737 0.733737
vt 0.358737 0.516263
vt 0.141263 0.733737
vt 0.141263 0.733737
vt 0.358741 0.516259
vt 0.369131 0.521739
vt 0.375000 0.564144
vt 0.375000 0.685856
vt 0.369131 0.728261
vt 0.358741 0.733741
vt 0.395955 0.479045
vt 0.604045 0.479045
vt 0.604050 0.479050
vt 0.601655 0.492354
vt 0.560856 0.500000
vt 0.439144 0.500000
vt 0.398345 0.492354
vt 0.395950 0.479050
vt 0.604045 0.270955
vt 0.604050 0.270950
vt 0.617354 0.273345
vt 0.625000 0.314144
vt 0.625000 0.435856
vt 0.617354 0.476655
vt 0.395955 0.979045
vt 0.395950 0.979050
vt 0.382646 0.976655
vt 0.375000 0.935856
vt 0.375000 0.814144
vt 0.382646 0.773345
vt 0.395950 0.770950
vt 0.603092 0.521908
vt 0.603092 0.728092
vt 0.603092 0.521908
vt 0.603092 0.728092
vt 0.606305 0.231305
vt 0.606309 0.018691
vt 0.618164 0.022501
vt 0.625000 0.064144
vt 0.625000 0.185856
vt 0.618164 0.227499
vt 0.606309 0.231309
vt 0.141263 0.516263
vt 0.141259 0.733742
vt 0.130869 0.728261
vt 0.125000 0.685856
vt 0.125000 0.564144
vt 0.130869 0.521739
vt 0.141259 0.516259
vt 0.396904 0.521904
vt 0.398726 0.507959
vt 0.601274 0.507959
vt 0.603096 0.521904
vt 0.641263 0.516263
vt 0.641263 0.733737
vt 0.641259 0.733742
vt 0.630869 0.728261
vt 0.625000 0.685856
vt 0.625000 0.564144
vt 0.630869 0.521739
vt 0.641259 0.516259
vt 0.858737 0.516263
vt 0.646739 0.505869
vt 0.689144 0.500000
vt 0.810856 0.500000
vt 0.853261 0.505869
vt 0.858741 0.516259
vt 0.353261 0.744131
vt 0.310856 0.750000
vt 0.189144 0.750000
vt 0.146739 0.744131
vt 0.858737 0.733737
vt 0.858741 0.733741
vt 0.853261 0.744131
vt 0.810856 0.750000
vt 0.689144 0.750000
vt 0.646739 0.744131
vt 0.393695 0.231305
vt 0.393691 0.231309
vt 0.381836 0.227499
vt 0.375000 0.185856
vt 0.375000 0.064144
vt 0.381836 0.022501
vt 0.393691 0.018691
vt 0.395955 0.270955
vt 0.604045 0.270955
vt 0.604045 0.479045
vt 0.395955 0.479045
vt 0.395955 0.979045
vt 0.395955 0.270955
vt 0.602499 0.243164
vt 0.560856 0.250000
vt 0.439144 0.250000
vt 0.397501 0.243164
vt 0.382646 0.476655
vt 0.375000 0.435856
vt 0.375000 0.314144
vt 0.382646 0.273345
vt 0.395950 0.270950
vt 0.617041 0.523726
vt 0.617041 0.726274
vt 0.603096 0.728096
vt 0.396904 0.728096
vt 0.382959 0.726274
vt 0.382959 0.523726
vt 0.398345 0.757646
vt 0.439144 0.750000
vt 0.560856 0.750000
vt 0.601655 0.757645
vt 0.604050 0.770950
vt 0.601274 0.742041
vt 0.398726 0.742041
vt 0.617354 0.773345
vt 0.625000 0.814144
vt 0.625000 0.935856
vt 0.617354 0.976655
vt 0.604050 0.979050
vt 0.141263 0.516263
vt 0.358737 0.516263
vt 0.358737 0.733737
vt 0.141263 0.733737
vt 0.641263 0.516263
vt 0.858737 0.516263
vt 0.858737 0.733737
vt 0.641263 0.733737
vt 0.141263 0.516263
vt 0.641263 0.733737
vt 0.858737 0.733737
vt 0.641263 0.516263
vt 0.858737 0.516263
vt 0.398345 0.257646
vt 0.601655 0.257646
vt 0.601655 0.992354
vt 0.560856 1.000000
vt 0.439144 1.000000
vt 0.398345 0.992354
vt 0.869132 0.521739
vt 0.875000 0.564144
vt 0.875000 0.685856
vt 0.869131 0.728261
vt 0.397501 0.006836
vt 0.439144 0.000000
vt 0.560856 0.000000
vt 0.602499 0.006836
vt 0.606305 0.231305
vt 0.393695 0.231305
vt 0.377611 0.501260
vt 0.375000 0.478261
vt 0.353261 0.505869
vt 0.623625 0.502497
vt 0.648345 0.500000
vt 0.376375 0.747503
vt 0.351655 0.750000
vt 0.622389 0.748740
vt 0.625000 0.771739
vt 0.297883 0.333361
vt 0.189144 0.500000
vt 0.146739 0.505869
vt 0.148345 0.500000
vt 0.375000 0.228261
vt 0.296646 0.579650
vt 0.125000 0.727499
vt 0.375000 0.978261
vt 0.398345 0.000000
vt 0.702117 0.583306
vt 0.602499 1.000000
vt 0.851655 0.750000
vt 0.625000 0.021739
vt 0.703354 0.337016
vt 0.875000 0.522501
vt 0.625000 0.271739
vt 0.310856 0.500000
vn -0.4276 0.0000 -0.9040
vn -0.8933 0.0000 0.4495
vn 0.4556 0.8902 0.0000
vn 0.0000 -0.8915 0.4531
vn -1.0000 0.0000 0.0000
vn 0.0000 0.0000 -1.0000
vn 0.0000 -1.0000 -0.0000
vn 0.0000 0.0000 1.0000
vn 1.0000 0.0000 0.0000
vn 0.4556 -0.8902 0.0000
vn 0.4556 0.0000 0.8902
vn 0.4556 0.0000 -0.8902
vn 0.0000 1.0000 0.0000
vn 0.0000 -0.8915 -0.4531
vn 0.8897 0.0000 -0.4566
vn 0.0000 0.8915 0.4531
vn -0.8933 0.0000 -0.4495
vn 0.0000 0.8915 -0.4531
vn 0.8897 0.0000 0.4566
vn 0.7097 -0.7045 0.0000
vn 0.7097 0.7045 0.0000
vn 0.0000 -0.7045 0.7097
vn 0.0000 0.7045 0.7097
vn -0.7097 -0.7045 0.0000
vn -0.7097 0.7045 0.0000
vn 0.0000 -0.7045 -0.7097
vn 0.0000 0.7045 -0.7097
vn -0.4276 -0.9040 0.0000
vn -0.4276 0.9040 0.0000
vn -0.4276 0.0000 0.9040
vn 0.1846 -0.5737 -0.7980
vn 0.2612 -0.2612 -0.9292
vn 0.7132 -0.1840 -0.6764
vn 0.9383 -0.2445 -0.2445
vn 0.8125 -0.5534 -0.1830
vn 0.3766 -0.8463 -0.3766
vn 0.3766 0.8463 -0.3766
vn 0.8125 0.5534 -0.1830
vn 0.9383 0.2445 -0.2445
vn 0.7132 0.1840 -0.6764
vn 0.2612 0.2612 -0.9292
vn 0.1846 0.5737 -0.7980
vn 0.8125 -0.5534 0.1830
vn 0.9383 -0.2445 0.2445
vn 0.7132 -0.1840 0.6764
vn 0.2612 -0.2612 0.9292
vn 0.1846 -0.5737 0.7980
vn 0.3766 -0.8463 0.3766
vn 0.3766 0.8463 0.3766
vn 0.1846 0.5737 0.7980
vn 0.2612 0.2612 0.9292
vn 0.7132 0.1840 0.6764
vn 0.9383 0.2445 0.2445
vn 0.8125 0.5534 0.1830
vn -0.9065 -0.2986 -0.2986
vn -0.6446 -0.1799 -0.7431
vn -0.2522 -0.2522 -0.9342
vn -0.1792 -0.5751 -0.7982
vn -0.3649 -0.8566 -0.3649
vn -0.7560 -0.6286 -0.1826
vn -0.7560 -0.6286 0.1826
vn -0.3649 -0.8566 0.3649
vn -0.1792 -0.5751 0.7982
vn -0.2522 -0.2522 0.9342
vn -0.6446 -0.1799 0.7431
vn -0.9065 -0.2986 0.2986
vn -0.6446 0.1799 0.7431
vn -0.2522 0.2522 0.9342
vn -0.1792 0.5751 0.7982
vn -0.3649 0.8566 0.3649
vn -0.7560 0.6286 0.1826
vn -0.9065 0.2986 0.2986
vn -0.7560 0.6286 -0.1826
vn -0.3649 0.8566 -0.3649
vn -0.1792 0.5751 -0.7982
vn -0.2522 0.2522 -0.9342
vn -0.6446 0.1799 -0.7431
vn -0.9065 0.2986 -0.2986
usemtl None
s off
f 34/1/1 35/2/1 55/3/1 54/4/1
f 11/5/2 12/6/2 31/7/2 32/8/2
f 5/9/3 7/10/3 14/11/3 15/12/3
f 12/6/4 2/13/4 26/14/4 31/7/4
f 21/15/5 24/16/5 51/17/5 49/18/5
f 24/16/6 17/19/6 46/20/6 51/17/6
f 24/16/7 21/15/7 62/21/7 68/22/7 61/23/7 83/24/7 95/25/7 88/26/7
f 10/27/6 9/28/6 74/29/6 80/30/6 73/31/6 59/32/6 65/33/6 58/34/6
f 9/28/6 4/35/6 151/36/6 157/37/6 150/38/6 75/39/6 81/40/6 74/29/6
f 11/5/8 1/41/8 125/42/8 131/43/8 124/44/8 87/45/8 93/46/8 86/47/8
f 14/11/9 13/48/9 16/49/9 15/12/9
f 8/50/10 6/51/10 16/49/10 13/48/10
f 7/10/11 8/50/11 13/48/11 14/11/11
f 6/51/12 5/9/12 15/12/12 16/49/12
f 36/52/5 35/2/5 140/53/5 146/54/5 139/55/5 148/56/5 160/57/5 153/58/5
f 20/59/7 17/19/7 123/60/7 128/61/7 122/62/7 114/63/7 120/64/7 113/65/7
f 8/50/9 7/10/9 60/66/9 66/67/9 59/32/9 73/31/9 79/68/9 72/69/9
f 22/70/13 23/71/13 96/72/13 108/73/13 101/74/13 71/75/13 76/76/13 70/77/13
f 19/78/13 22/70/13 70/77/13 82/79/13 75/80/13 150/81/13 156/82/13 149/83/13
f 17/19/7 24/16/7 88/26/7 94/84/7 87/85/7 124/86/7 130/87/7 123/60/7
f 23/71/13 18/88/13 138/89/13 144/90/13 137/91/13 97/92/13 102/93/13 96/72/13
f 34/1/5 33/94/5 109/95/5 121/96/5 114/97/5 122/98/5 134/99/5 127/100/5
f 28/101/6 27/102/6 30/103/6 29/104/6
f 32/8/8 31/7/8 26/14/8 25/105/8
f 4/35/14 9/28/14 30/103/14 27/102/14
f 3/106/15 4/35/15 27/102/15 28/101/15
f 1/41/16 11/5/16 32/8/16 25/105/16
f 9/28/17 10/27/17 29/104/17 30/103/17
f 10/27/18 3/106/18 28/101/18 29/104/18
f 2/13/19 1/41/19 25/105/19 26/14/19
f 33/94/5 36/52/5 153/58/5 159/107/5 152/108/5 110/109/5 115/110/5 109/95/5
f 3/106/6 10/27/6 58/34/6 63/111/6 57/112/6 112/113/6 118/114/6 111/115/6
f 6/51/9 8/50/9 72/69/9 78/116/9 71/75/9 101/74/9 107/117/9 100/118/9
f 7/10/9 5/9/9 84/119/9 89/120/9 83/24/9 61/23/9 67/121/9 60/66/9
f 12/6/8 11/5/8 86/47/8 92/122/8 85/123/8 99/124/8 105/125/8 98/126/8
f 5/9/9 6/51/9 100/118/9 106/127/9 99/124/9 85/123/9 91/128/9 84/119/9
f 2/13/8 12/6/8 98/126/8 104/129/8 97/130/8 137/131/8 143/132/8 136/133/8
f 37/134/7 41/135/7 43/136/7 38/137/7
f 42/138/13 40/139/13 39/140/13 44/141/13
f 20/59/8 21/15/8 49/18/8 45/142/8
f 17/19/9 20/59/9 45/142/9 46/20/9
f 18/88/6 23/71/6 52/143/6 47/144/6
f 23/71/5 22/70/5 50/145/5 52/143/5
f 22/70/8 19/78/8 48/146/8 50/145/8
f 19/78/9 18/88/9 47/144/9 48/146/9
f 37/134/20 38/137/20 46/20/20 45/142/20
f 39/140/21 40/139/21 48/146/21 47/144/21
f 41/135/22 37/134/22 45/142/22 49/18/22
f 40/139/23 42/138/23 50/145/23 48/146/23
f 43/136/24 41/135/24 49/18/24 51/17/24
f 42/138/25 44/141/25 52/143/25 50/145/25
f 38/137/26 43/136/26 51/17/26 46/20/26
f 44/141/27 39/140/27 47/144/27 52/143/27
f 4/35/6 3/106/6 111/115/6 117/147/6 110/109/6 152/108/6 158/148/6 151/36/6
f 1/41/8 2/13/8 136/133/8 141/149/8 135/150/8 126/151/8 132/152/8 125/42/8
f 18/88/13 19/78/13 149/83/13 154/153/13 148/154/13 139/155/13 145/156/13 138/89/13
f 35/2/5 34/1/5 127/100/5 133/157/5 126/158/5 135/159/5 147/160/5 140/53/5
f 54/4/5 55/3/5 56/161/5 53/162/5
f 35/2/28 36/52/28 56/161/28 55/3/28
f 33/94/29 34/1/29 54/4/29 53/162/29
f 36/52/30 33/94/30 53/162/30 56/161/30
f 57/112/31 63/111/31 64/163/31 69/164/31
f 58/34/32 65/33/32 64/163/32 63/111/32
f 59/32/33 66/67/33 64/163/33 65/33/33
f 60/66/34 67/121/34 64/163/34 66/67/34
f 61/23/35 68/22/35 64/163/35 67/121/35
f 62/21/36 69/165/36 64/163/36 68/22/36
f 70/77/37 76/76/37 77/166/37 82/79/37
f 71/75/38 78/116/38 77/166/38 76/76/38
f 72/69/39 79/68/39 77/166/39 78/116/39
f 73/31/40 80/30/40 77/166/40 79/68/40
f 74/29/41 81/40/41 77/166/41 80/30/41
f 75/80/42 82/79/42 77/166/42 81/167/42
f 83/24/43 89/120/43 90/168/43 95/25/43
f 84/119/44 91/128/44 90/168/44 89/120/44
f 85/123/45 92/122/45 90/168/45 91/128/45
f 86/47/46 93/46/46 90/168/46 92/122/46
f 87/85/47 94/84/47 90/168/47 93/169/47
f 88/26/48 95/25/48 90/168/48 94/84/48
f 96/72/49 102/93/49 103/170/49 108/73/49
f 97/130/50 104/129/50 103/170/50 102/171/50
f 98/126/51 105/125/51 103/170/51 104/129/51
f 99/124/52 106/127/52 103/170/52 105/125/52
f 100/118/53 107/117/53 103/170/53 106/127/53
f 101/74/54 108/73/54 103/170/54 107/117/54
f 109/95/55 115/110/55 116/172/55 121/96/55
f 110/109/56 117/147/56 116/172/56 115/110/56
f 111/115/57 118/114/57 116/172/57 117/147/57
f 112/173/58 119/174/58 116/172/58 118/175/58
f 113/65/59 120/64/59 116/172/59 119/174/59
f 114/97/60 121/96/60 116/172/60 120/176/60
f 122/62/61 128/61/61 129/177/61 134/178/61
f 123/60/62 130/87/62 129/177/62 128/61/62
f 124/44/63 131/43/63 129/177/63 130/179/63
f 125/42/64 132/152/64 129/177/64 131/43/64
f 126/158/65 133/157/65 129/177/65 132/180/65
f 127/100/66 134/99/66 129/177/66 133/157/66
f 135/150/67 141/149/67 142/181/67 147/182/67
f 136/133/68 143/132/68 142/181/68 141/149/68
f 137/91/69 144/90/69 142/181/69 143/183/69
f 138/89/70 145/156/70 142/181/70 144/90/70
f 139/55/71 146/54/71 142/181/71 145/184/71
f 140/53/72 147/160/72 142/181/72 146/54/72
f 148/154/73 154/153/73 155/185/73 160/186/73
f 149/83/74 156/82/74 155/185/74 154/153/74
f 150/38/75 157/37/75 155/185/75 156/187/75
f 151/36/76 158/148/76 155/185/76 157/37/76
f 152/108/77 159/107/77 155/185/77 158/148/77
f 153/58/78 160/57/78 155/185/78 159/107/78
f 21/15/7 20/59/7 113/65/7 119/174/7 112/173/7 57/188/7 69/165/7 62/21/7
